# xmcd CD database file
#
# Track frame offsets:
#	150
#	12678
#	23368
#	40924
#	52737
#	69357
#	85393
#	100351
#	123806
#	144989
#	158230
#	179475
#	193803
#	213466
#
# Disc length: 3077 seconds
#
# Revision: 0
# Processed by: cddbd v1.5PL3 Copyright (c) Steve Scherf et al.
# Submitted via: CDex 1.51
#
DISCID=ba0c030e
DTITLE=Willie Nelson - Teatro
DYEAR=1998
DGENRE=Jazz
TTITLE0=Ou es-tu, mon amour?
TTITLE1=I never cared for you
TTITLE2=Everywhere I go
TTITLE3=Darkness on the face of the earth
TTITLE4=My own peculiar way
TTITLE5=These lonely nights
TTITLE6=Home motel
TTITLE7=Maker
TTITLE8=I just can't let you say goodbye
TTITLE9=I've just destroyed the world
TTITLE10=Somebody pick up my pieces
TTITLE11=Three days
TTITLE12=I've loved you all over the world
TTITLE13=Annie
EXTD=YEAR: 1998
EXTT0=
EXTT1=
EXTT2=
EXTT3=
EXTT4=
EXTT5=
EXTT6=
EXTT7=
EXTT8=
EXTT9=
EXTT10=
EXTT11=
EXTT12=
EXTT13=
PLAYORDER=
